# xmcd
#
# Track frame offsets:
#	182
#	14962
#	28385
#	39790
#	53285
#	64087
#	75042
#	89595
#	100157
#	116670
#
# Disc length: 1739 seconds
#
# Revision: 1
# Processed by: cddbd v1.5.1PL0 Copyright (c) Steve Scherf et al.
# Submitted via: audiograbber 1.83.01
#
DISCID=7406c90a
DTITLE=Amaya - Seguimos Juntos
DYEAR=1989
DGENRE=Blues
TTITLE0=Ya no vive aqui
TTITLE1=Ojala
TTITLE2=Yo te comprendo
TTITLE3=Seguimos Juntos
TTITLE4=Nuestro Amor Perdido
TTITLE5=Despues de Hablar Contigo
TTITLE6=El Amor y Yo
TTITLE7=No le dimos Tiempo
TTITLE8=Que no Quiero
TTITLE9=Ahora que estoy sola
EXTD=
EXTT0=
EXTT1=
EXTT2=
EXTT3=
EXTT4=
EXTT5=
EXTT6=
EXTT7=
EXTT8=
EXTT9=
PLAYORDER=
